# Blender v2.82 (sub 7) OBJ File: 'MedievalSceneExport.blend'
# www.blender.org
mtllib Candle.mtl
o Candle_ObjObject.006
v -0.249997 0.101903 0.052353
v -0.249997 0.001903 -0.047647
v -0.249997 0.001903 0.052353
v -0.249997 0.101903 -0.047647
v -0.149997 0.101903 0.152353
v -0.149997 0.001903 0.052353
v -0.149997 0.001903 0.152353
v -0.149997 0.101903 0.052353
v -0.149997 0.101903 -0.047647
v -0.149997 0.001903 -0.147647
v -0.149997 0.001903 -0.047647
v -0.149997 0.101903 -0.147647
v -0.149997 0.201903 0.152353
v -0.149997 0.201903 -0.147647
v -0.049997 0.101903 0.252353
v -0.049997 0.001903 0.152353
v -0.049997 0.001903 0.252353
v -0.049997 0.101903 0.152353
v -0.049997 0.101903 -0.147647
v -0.049997 0.001903 -0.247647
v -0.049997 0.001903 -0.147647
v -0.049997 0.101903 -0.247647
v -0.049997 0.201903 -0.247647
v -0.049997 0.101903 -0.347647
v -0.049997 0.201903 -0.347647
v -0.049997 0.301903 -0.047647
v -0.049997 0.201903 -0.147647
v -0.049997 0.201903 -0.047647
v -0.049997 0.201903 0.052353
v -0.049997 0.301903 -0.147647
v -0.049997 0.301903 -0.247647
v -0.049997 0.301903 -0.347647
v -0.049997 0.401903 -0.147647
v -0.049997 0.401903 -0.247647
v -0.049997 0.501903 0.052353
v -0.049997 0.501903 -0.047647
v -0.049997 0.601903 0.052353
v -0.049997 0.601903 -0.047647
v -0.049997 0.701903 0.052353
v -0.049997 0.701903 -0.047647
v 0.050003 0.001903 0.252353
v 0.050003 0.001903 0.152353
v 0.050003 0.101903 0.252353
v 0.050003 0.101903 0.152353
v 0.050003 0.001903 -0.147647
v 0.050003 0.001903 -0.247647
v 0.050003 0.101903 -0.147647
v 0.050003 0.101903 -0.247647
v 0.050003 0.101903 -0.347647
v 0.050003 0.201903 -0.247647
v 0.050003 0.201903 -0.347647
v 0.050003 0.201903 -0.047647
v 0.050003 0.201903 -0.147647
v 0.050003 0.301903 -0.047647
v 0.050003 0.201903 0.052353
v 0.050003 0.301903 -0.147647
v 0.050003 0.301903 -0.247647
v 0.050003 0.301903 -0.347647
v 0.050003 0.401903 -0.147647
v 0.050003 0.401903 -0.247647
v 0.050003 0.501903 0.052353
v 0.050003 0.501903 -0.047647
v 0.050003 0.601903 0.052353
v 0.050003 0.601903 -0.047647
v 0.050003 0.701903 0.052353
v 0.050003 0.701903 -0.047647
v 0.150003 0.001903 0.152353
v 0.150003 0.001903 0.052353
v 0.150003 0.101903 0.152353
v 0.150003 0.101903 0.052353
v 0.150003 0.001903 -0.047647
v 0.150003 0.001903 -0.147647
v 0.150003 0.101903 -0.047647
v 0.150003 0.101903 -0.147647
v 0.150003 0.201903 0.152353
v 0.150003 0.201903 -0.147647
v 0.250003 0.001903 0.052353
v 0.250003 0.001903 -0.047647
v 0.250003 0.101903 0.052353
v 0.250003 0.101903 -0.047647
v 0.050003 0.001903 0.252353
v -0.049997 0.101903 0.252353
v -0.049997 0.001903 0.252353
v 0.050003 0.101903 0.252353
v -0.049997 0.001903 0.152353
v -0.149997 0.101903 0.152353
v -0.149997 0.001903 0.152353
v -0.049997 0.101903 0.152353
v -0.149997 0.201903 0.152353
v 0.050003 0.101903 0.152353
v 0.150003 0.001903 0.152353
v 0.050003 0.001903 0.152353
v 0.150003 0.101903 0.152353
v 0.150003 0.201903 0.152353
v -0.149997 0.001903 0.052353
v -0.249997 0.101903 0.052353
v -0.249997 0.001903 0.052353
v -0.149997 0.101903 0.052353
v 0.050003 0.201903 0.052353
v -0.049997 0.501903 0.052353
v -0.049997 0.201903 0.052353
v 0.050003 0.501903 0.052353
v -0.049997 0.601903 0.052353
v 0.050003 0.601903 0.052353
v -0.049997 0.701903 0.052353
v 0.050003 0.701903 0.052353
v 0.250003 0.001903 0.052353
v 0.150003 0.101903 0.052353
v 0.150003 0.001903 0.052353
v 0.250003 0.101903 0.052353
v 0.050003 0.301903 -0.147647
v -0.049997 0.401903 -0.147647
v -0.049997 0.301903 -0.147647
v 0.050003 0.401903 -0.147647
v 0.050003 0.101903 -0.247647
v -0.049997 0.201903 -0.247647
v -0.049997 0.101903 -0.247647
v 0.050003 0.201903 -0.247647
v -0.049997 0.301903 -0.247647
v 0.050003 0.301903 -0.247647
v -0.249997 0.001903 -0.047647
v -0.249997 0.101903 -0.047647
v -0.149997 0.001903 -0.047647
v -0.149997 0.101903 -0.047647
v -0.049997 0.301903 -0.047647
v -0.049997 0.501903 -0.047647
v 0.050003 0.301903 -0.047647
v -0.049997 0.601903 -0.047647
v 0.050003 0.501903 -0.047647
v -0.049997 0.701903 -0.047647
v 0.050003 0.601903 -0.047647
v 0.050003 0.701903 -0.047647
v 0.150003 0.001903 -0.047647
v 0.150003 0.101903 -0.047647
v 0.250003 0.001903 -0.047647
v 0.250003 0.101903 -0.047647
v -0.149997 0.001903 -0.147647
v -0.149997 0.101903 -0.147647
v -0.049997 0.001903 -0.147647
v -0.149997 0.201903 -0.147647
v -0.049997 0.101903 -0.147647
v -0.049997 0.201903 -0.147647
v 0.050003 0.101903 -0.147647
v -0.049997 0.301903 -0.147647
v 0.050003 0.201903 -0.147647
v 0.050003 0.301903 -0.147647
v 0.050003 0.001903 -0.147647
v 0.150003 0.001903 -0.147647
v 0.150003 0.101903 -0.147647
v 0.150003 0.201903 -0.147647
v -0.049997 0.001903 -0.247647
v -0.049997 0.101903 -0.247647
v 0.050003 0.001903 -0.247647
v 0.050003 0.101903 -0.247647
v -0.049997 0.301903 -0.247647
v -0.049997 0.401903 -0.247647
v 0.050003 0.301903 -0.247647
v 0.050003 0.401903 -0.247647
v -0.049997 0.101903 -0.347647
v -0.049997 0.201903 -0.347647
v 0.050003 0.101903 -0.347647
v -0.049997 0.301903 -0.347647
v 0.050003 0.201903 -0.347647
v 0.050003 0.301903 -0.347647
v -0.049997 0.001903 0.152353
v 0.050003 0.001903 0.252353
v -0.049997 0.001903 0.252353
v 0.050003 0.001903 0.152353
v -0.149997 0.001903 0.052353
v -0.149997 0.001903 0.152353
v 0.150003 0.001903 0.152353
v 0.150003 0.001903 0.052353
v -0.249997 0.001903 -0.047647
v -0.249997 0.001903 0.052353
v -0.149997 0.001903 -0.047647
v 0.150003 0.001903 -0.047647
v 0.250003 0.001903 0.052353
v 0.250003 0.001903 -0.047647
v -0.149997 0.001903 -0.147647
v -0.049997 0.001903 -0.147647
v 0.050003 0.001903 -0.147647
v 0.150003 0.001903 -0.147647
v -0.049997 0.001903 -0.247647
v 0.050003 0.001903 -0.247647
v -0.049997 0.101903 -0.347647
v 0.050003 0.101903 -0.247647
v -0.049997 0.101903 -0.247647
v 0.050003 0.101903 -0.347647
v -0.049997 0.301903 -0.247647
v 0.050003 0.301903 -0.147647
v -0.049997 0.301903 -0.147647
v 0.050003 0.301903 -0.247647
v -0.049997 0.101903 0.252353
v 0.050003 0.101903 0.252353
v -0.049997 0.101903 0.152353
v 0.050003 0.101903 0.152353
v -0.249997 0.101903 0.052353
v -0.149997 0.101903 0.052353
v -0.249997 0.101903 -0.047647
v -0.149997 0.101903 -0.047647
v 0.150003 0.101903 0.052353
v 0.250003 0.101903 0.052353
v 0.150003 0.101903 -0.047647
v 0.250003 0.101903 -0.047647
v -0.049997 0.101903 -0.147647
v 0.050003 0.101903 -0.147647
v -0.049997 0.101903 -0.247647
v 0.050003 0.101903 -0.247647
v -0.149997 0.201903 0.152353
v 0.150003 0.201903 0.152353
v -0.049997 0.201903 0.052353
v 0.050003 0.201903 0.052353
v -0.049997 0.201903 -0.047647
v 0.050003 0.201903 -0.047647
v -0.149997 0.201903 -0.147647
v -0.049997 0.201903 -0.147647
v 0.050003 0.201903 -0.147647
v 0.150003 0.201903 -0.147647
v -0.049997 0.301903 -0.047647
v 0.050003 0.301903 -0.047647
v -0.049997 0.301903 -0.147647
v 0.050003 0.301903 -0.147647
v -0.049997 0.301903 -0.247647
v 0.050003 0.301903 -0.247647
v -0.049997 0.301903 -0.347647
v 0.050003 0.301903 -0.347647
v -0.049997 0.401903 -0.147647
v 0.050003 0.401903 -0.147647
v -0.049997 0.401903 -0.247647
v 0.050003 0.401903 -0.247647
v -0.049997 0.701903 0.052353
v 0.050003 0.701903 0.052353
v -0.049997 0.701903 -0.047647
v 0.050003 0.701903 -0.047647
vt 0.990234 0.500000
vt 0.990234 0.500000
vt 0.990234 0.500000
vt 0.990234 0.500000
vt 0.994141 0.500000
vt 0.994141 0.500000
vt 0.994141 0.500000
vt 0.994141 0.500000
vt 0.994141 0.500000
vt 0.994141 0.500000
vt 0.994141 0.500000
vt 0.994141 0.500000
vt 0.990234 0.500000
vt 0.990234 0.500000
vt 0.990234 0.500000
vt 0.990234 0.500000
vt 0.990234 0.500000
vt 0.990234 0.500000
vt 0.990234 0.500000
vt 0.990234 0.500000
vt 0.990234 0.500000
vt 0.990234 0.500000
vt 0.994141 0.500000
vt 0.994141 0.500000
vt 0.994141 0.500000
vt 0.994141 0.500000
vt 0.994141 0.500000
vt 0.994141 0.500000
vt 0.994141 0.500000
vt 0.990234 0.500000
vt 0.990234 0.500000
vt 0.990234 0.500000
vt 0.408203 0.500000
vt 0.408203 0.500000
vt 0.408203 0.500000
vt 0.990234 0.500000
vt 0.990234 0.500000
vt 0.990234 0.500000
vt 0.990234 0.500000
vt 0.990234 0.500000
vt 0.990234 0.500000
vt 0.990234 0.500000
vt 0.408203 0.500000
vt 0.408203 0.500000
vt 0.884766 0.500000
vt 0.884766 0.500000
vt 0.884766 0.500000
vt 0.884766 0.500000
vt 0.958984 0.500000
vt 0.958984 0.500000
vt 0.958984 0.500000
vt 0.958984 0.500000
vt 0.990234 0.500000
vt 0.990234 0.500000
vt 0.990234 0.500000
vt 0.990234 0.500000
vt 0.994141 0.500000
vt 0.994141 0.500000
vt 0.994141 0.500000
vt 0.994141 0.500000
vt 0.994141 0.500000
vt 0.994141 0.500000
vt 0.994141 0.500000
vt 0.990234 0.500000
vt 0.990234 0.500000
vt 0.990234 0.500000
vt 0.408203 0.500000
vt 0.408203 0.500000
vt 0.408203 0.500000
vt 0.990234 0.500000
vt 0.990234 0.500000
vt 0.990234 0.500000
vt 0.990234 0.500000
vt 0.990234 0.500000
vt 0.990234 0.500000
vt 0.990234 0.500000
vt 0.408203 0.500000
vt 0.408203 0.500000
vt 0.884766 0.500000
vt 0.884766 0.500000
vt 0.884766 0.500000
vt 0.884766 0.500000
vt 0.958984 0.500000
vt 0.958984 0.500000
vt 0.958984 0.500000
vt 0.958984 0.500000
vt 0.994141 0.500000
vt 0.994141 0.500000
vt 0.994141 0.500000
vt 0.994141 0.500000
vt 0.994141 0.500000
vt 0.994141 0.500000
vt 0.994141 0.500000
vt 0.994141 0.500000
vt 0.990234 0.500000
vt 0.990234 0.500000
vt 0.990234 0.500000
vt 0.990234 0.500000
vt 0.990234 0.500000
vt 0.990234 0.500000
vt 0.990234 0.500000
vt 0.990234 0.500000
vt 0.990234 0.500000
vt 0.990234 0.500000
vt 0.990234 0.500000
vt 0.990234 0.500000
vt 0.990234 0.500000
vt 0.990234 0.500000
vt 0.994141 0.500000
vt 0.994141 0.500000
vt 0.994141 0.500000
vt 0.990234 0.500000
vt 0.990234 0.500000
vt 0.990234 0.500000
vt 0.994141 0.500000
vt 0.990234 0.500000
vt 0.994141 0.500000
vt 0.994141 0.500000
vt 0.994141 0.500000
vt 0.990234 0.500000
vt 0.994141 0.500000
vt 0.990234 0.500000
vt 0.990234 0.500000
vt 0.990234 0.500000
vt 0.990234 0.500000
vt 0.990234 0.500000
vt 0.408203 0.500000
vt 0.408203 0.500000
vt 0.408203 0.500000
vt 0.884766 0.500000
vt 0.884766 0.500000
vt 0.884766 0.500000
vt 0.408203 0.500000
vt 0.958984 0.500000
vt 0.958984 0.500000
vt 0.958984 0.500000
vt 0.884766 0.500000
vt 0.958984 0.500000
vt 0.990234 0.500000
vt 0.990234 0.500000
vt 0.990234 0.500000
vt 0.990234 0.500000
vt 0.990234 0.500000
vt 0.990234 0.500000
vt 0.990234 0.500000
vt 0.990234 0.500000
vt 0.994141 0.500000
vt 0.994141 0.500000
vt 0.994141 0.500000
vt 0.990234 0.500000
vt 0.990234 0.500000
vt 0.990234 0.500000
vt 0.994141 0.500000
vt 0.990234 0.500000
vt 0.990234 0.500000
vt 0.990234 0.500000
vt 0.990234 0.500000
vt 0.990234 0.500000
vt 0.408203 0.500000
vt 0.408203 0.500000
vt 0.408203 0.500000
vt 0.884766 0.500000
vt 0.884766 0.500000
vt 0.884766 0.500000
vt 0.408203 0.500000
vt 0.958984 0.500000
vt 0.958984 0.500000
vt 0.958984 0.500000
vt 0.884766 0.500000
vt 0.958984 0.500000
vt 0.990234 0.500000
vt 0.990234 0.500000
vt 0.990234 0.500000
vt 0.990234 0.500000
vt 0.994141 0.500000
vt 0.994141 0.500000
vt 0.994141 0.500000
vt 0.990234 0.500000
vt 0.990234 0.500000
vt 0.990234 0.500000
vt 0.994141 0.500000
vt 0.990234 0.500000
vt 0.994141 0.500000
vt 0.994141 0.500000
vt 0.990234 0.500000
vt 0.990234 0.500000
vt 0.994141 0.500000
vt 0.990234 0.500000
vt 0.994141 0.500000
vt 0.994141 0.500000
vt 0.990234 0.500000
vt 0.990234 0.500000
vt 0.994141 0.500000
vt 0.990234 0.500000
vt 0.994141 0.500000
vt 0.994141 0.500000
vt 0.994141 0.500000
vt 0.994141 0.500000
vt 0.990234 0.500000
vt 0.990234 0.500000
vt 0.990234 0.500000
vt 0.990234 0.500000
vt 0.994141 0.500000
vt 0.994141 0.500000
vt 0.994141 0.500000
vt 0.990234 0.500000
vt 0.990234 0.500000
vt 0.990234 0.500000
vt 0.994141 0.500000
vt 0.990234 0.500000
vt 0.990234 0.500000
vt 0.990234 0.500000
vt 0.990234 0.500000
vt 0.990234 0.500000
vt 0.994141 0.500000
vt 0.994141 0.500000
vt 0.994141 0.500000
vt 0.994141 0.500000
vt 0.994141 0.500000
vt 0.994141 0.500000
vt 0.990234 0.500000
vt 0.990234 0.500000
vt 0.990234 0.500000
vt 0.994141 0.500000
vt 0.990234 0.500000
vt 0.990234 0.500000
vt 0.990234 0.500000
vt 0.990234 0.500000
vt 0.994141 0.500000
vt 0.990234 0.500000
vt 0.994141 0.500000
vt 0.994141 0.500000
vt 0.994141 0.500000
vt 0.994141 0.500000
vt 0.994141 0.500000
vt 0.994141 0.500000
vt 0.994141 0.500000
vt 0.994141 0.500000
vt 0.994141 0.500000
vt 0.994141 0.500000
vt 0.990234 0.500000
vt 0.990234 0.500000
vt 0.990234 0.500000
vt 0.990234 0.500000
vt 0.990234 0.500000
vt 0.990234 0.500000
vt 0.990234 0.500000
vt 0.990234 0.500000
vt 0.990234 0.500000
vt 0.990234 0.500000
vt 0.990234 0.500000
vt 0.990234 0.500000
vt 0.990234 0.500000
vt 0.990234 0.500000
vt 0.990234 0.500000
vt 0.990234 0.500000
vt 0.994141 0.500000
vt 0.994141 0.500000
vt 0.994141 0.500000
vt 0.994141 0.500000
vt 0.990234 0.500000
vt 0.990234 0.500000
vt 0.990234 0.500000
vt 0.990234 0.500000
vt 0.990234 0.500000
vt 0.990234 0.500000
vt 0.990234 0.500000
vt 0.990234 0.500000
vt 0.990234 0.500000
vt 0.990234 0.500000
vt 0.990234 0.500000
vt 0.990234 0.500000
vt 0.990234 0.500000
vt 0.990234 0.500000
vt 0.990234 0.500000
vt 0.990234 0.500000
vt 0.990234 0.500000
vt 0.990234 0.500000
vt 0.990234 0.500000
vt 0.990234 0.500000
vt 0.990234 0.500000
vt 0.990234 0.500000
vt 0.958984 0.500000
vt 0.958984 0.500000
vt 0.958984 0.500000
vt 0.958984 0.500000
vn -1.0000 0.0000 0.0000
vn 1.0000 -0.0000 0.0000
vn 0.0000 -0.0000 1.0000
vn 0.0000 0.0000 -1.0000
vn 0.0000 -1.0000 -0.0000
vn 0.0000 1.0000 0.0000
usemtl palette.044
s 1
f 1/1/1 2/2/1 3/3/1
f 4/4/1 2/2/1 1/1/1
f 5/5/1 6/6/1 7/7/1
f 8/8/1 6/6/1 5/5/1
f 9/9/1 10/10/1 11/11/1
f 12/12/1 10/10/1 9/9/1
f 13/13/1 8/14/1 5/15/1
f 13/13/1 9/16/1 8/14/1
f 13/13/1 12/17/1 9/16/1
f 14/18/1 12/17/1 13/13/1
f 15/19/1 16/20/1 17/21/1
f 18/22/1 16/20/1 15/19/1
f 19/23/1 20/24/1 21/25/1
f 22/26/1 20/24/1 19/23/1
f 23/27/1 24/28/1 22/26/1
f 25/29/1 24/28/1 23/27/1
f 26/30/1 27/31/1 28/32/1
f 26/33/1 28/34/1 29/35/1
f 30/36/1 27/31/1 26/30/1
f 31/37/1 25/38/1 23/39/1
f 32/40/1 25/38/1 31/37/1
f 33/41/1 31/37/1 30/36/1
f 34/42/1 31/37/1 33/41/1
f 35/43/1 26/33/1 29/35/1
f 36/44/1 26/33/1 35/43/1
f 37/45/1 36/46/1 35/47/1
f 38/48/1 36/46/1 37/45/1
f 39/49/1 38/50/1 37/51/1
f 40/52/1 38/50/1 39/49/1
f 41/53/2 42/54/2 43/55/2
f 43/55/2 42/54/2 44/56/2
f 45/57/2 46/58/2 47/59/2
f 47/59/2 46/58/2 48/60/2
f 48/60/2 49/61/2 50/62/2
f 50/62/2 49/61/2 51/63/2
f 52/64/2 53/65/2 54/66/2
f 55/67/2 52/68/2 54/69/2
f 54/66/2 53/65/2 56/70/2
f 50/71/2 51/72/2 57/73/2
f 57/73/2 51/72/2 58/74/2
f 56/70/2 57/73/2 59/75/2
f 59/75/2 57/73/2 60/76/2
f 55/67/2 54/69/2 61/77/2
f 61/77/2 54/69/2 62/78/2
f 61/79/2 62/80/2 63/81/2
f 63/81/2 62/80/2 64/82/2
f 63/83/2 64/84/2 65/85/2
f 65/85/2 64/84/2 66/86/2
f 67/87/2 68/88/2 69/89/2
f 69/89/2 68/88/2 70/90/2
f 71/91/2 72/92/2 73/93/2
f 73/93/2 72/92/2 74/94/2
f 69/95/2 70/96/2 75/97/2
f 70/96/2 73/98/2 75/97/2
f 73/98/2 74/99/2 75/97/2
f 75/97/2 74/99/2 76/100/2
f 77/101/2 78/102/2 79/103/2
f 79/103/2 78/102/2 80/104/2
f 81/105/3 82/106/3 83/107/3
f 84/108/3 82/106/3 81/105/3
f 85/109/3 86/110/3 87/111/3
f 88/112/3 89/113/3 86/114/3
f 88/115/3 86/110/3 85/109/3
f 90/116/3 89/113/3 88/112/3
f 91/117/3 90/118/3 92/119/3
f 93/120/3 89/113/3 90/116/3
f 93/121/3 90/118/3 91/117/3
f 94/122/3 89/113/3 93/120/3
f 95/123/3 96/124/3 97/125/3
f 98/126/3 96/124/3 95/123/3
f 99/127/3 100/128/3 101/129/3
f 102/130/3 103/131/3 100/132/3
f 102/133/3 100/128/3 99/127/3
f 104/134/3 105/135/3 103/136/3
f 104/137/3 103/131/3 102/130/3
f 106/138/3 105/135/3 104/134/3
f 107/139/3 108/140/3 109/141/3
f 110/142/3 108/140/3 107/139/3
f 111/143/3 112/144/3 113/145/3
f 114/146/3 112/144/3 111/143/3
f 115/147/3 116/148/3 117/149/3
f 118/150/3 119/151/3 116/152/3
f 118/153/3 116/148/3 115/147/3
f 120/154/3 119/151/3 118/150/3
f 121/155/4 122/156/4 123/157/4
f 123/157/4 122/156/4 124/158/4
f 125/159/4 126/160/4 127/161/4
f 126/162/4 128/163/4 129/164/4
f 127/161/4 126/160/4 129/165/4
f 128/166/4 130/167/4 131/168/4
f 129/164/4 128/163/4 131/169/4
f 131/168/4 130/167/4 132/170/4
f 133/171/4 134/172/4 135/173/4
f 135/173/4 134/172/4 136/174/4
f 137/175/4 138/176/4 139/177/4
f 138/178/4 140/179/4 141/180/4
f 139/177/4 138/176/4 141/181/4
f 141/180/4 140/179/4 142/182/4
f 141/181/4 142/183/4 143/184/4
f 142/182/4 144/185/4 145/186/4
f 143/184/4 142/183/4 145/187/4
f 145/186/4 144/185/4 146/188/4
f 147/189/4 143/184/4 148/190/4
f 143/191/4 145/186/4 149/192/4
f 148/190/4 143/184/4 149/193/4
f 149/192/4 145/186/4 150/194/4
f 151/195/4 152/196/4 153/197/4
f 153/197/4 152/196/4 154/198/4
f 155/199/4 156/200/4 157/201/4
f 157/201/4 156/200/4 158/202/4
f 159/203/4 160/204/4 161/205/4
f 160/206/4 162/207/4 163/208/4
f 161/205/4 160/204/4 163/209/4
f 163/208/4 162/207/4 164/210/4
f 165/211/5 166/212/5 167/213/5
f 168/214/5 166/212/5 165/211/5
f 169/215/5 165/216/5 170/217/5
f 169/215/5 171/218/5 168/219/5
f 169/215/5 168/219/5 165/216/5
f 172/220/5 171/218/5 169/215/5
f 173/221/5 169/222/5 174/223/5
f 175/224/5 172/220/5 169/215/5
f 175/225/5 169/222/5 173/221/5
f 176/226/5 177/227/5 172/228/5
f 176/229/5 172/220/5 175/224/5
f 178/230/5 177/227/5 176/226/5
f 179/231/5 176/229/5 175/224/5
f 180/232/5 176/229/5 179/231/5
f 181/233/5 176/229/5 180/232/5
f 182/234/5 176/229/5 181/233/5
f 183/235/5 181/233/5 180/232/5
f 184/236/5 181/233/5 183/235/5
f 185/237/5 186/238/5 187/239/5
f 188/240/5 186/238/5 185/237/5
f 189/241/5 190/242/5 191/243/5
f 192/244/5 190/242/5 189/241/5
f 193/245/6 194/246/6 195/247/6
f 195/247/6 194/246/6 196/248/6
f 197/249/6 198/250/6 199/251/6
f 199/251/6 198/250/6 200/252/6
f 201/253/6 202/254/6 203/255/6
f 203/255/6 202/254/6 204/256/6
f 205/257/6 206/258/6 207/259/6
f 207/259/6 206/258/6 208/260/6
f 209/261/6 210/262/6 211/263/6
f 211/263/6 210/262/6 212/264/6
f 209/261/6 211/263/6 213/265/6
f 212/264/6 210/262/6 214/266/6
f 209/261/6 213/265/6 215/267/6
f 215/267/6 213/265/6 216/268/6
f 214/266/6 210/262/6 217/269/6
f 217/269/6 210/262/6 218/270/6
f 219/271/6 220/272/6 221/273/6
f 221/273/6 220/272/6 222/274/6
f 223/275/6 224/276/6 225/277/6
f 225/277/6 224/276/6 226/278/6
f 227/279/6 228/280/6 229/281/6
f 229/281/6 228/280/6 230/282/6
f 231/283/6 232/284/6 233/285/6
f 233/285/6 232/284/6 234/286/6
