# Blender v2.82 (sub 7) OBJ File: 'MedievalSceneExport.blend'
# www.blender.org
mtllib CornerExtenstionPlaster.mtl
o ObjObject.055
v 0.000000 0.200000 0.000000
v 0.000000 0.100000 -1.100000
v 0.000000 0.100000 0.000000
v 0.000000 0.200000 -0.400000
v 0.000000 0.200000 -0.500000
v 0.000000 0.200000 -0.900000
v 0.000000 0.200000 -1.000000
v 0.000000 0.200000 -1.100000
v 0.000000 0.300000 -0.400000
v 0.000000 0.300000 -0.500000
v 0.000000 0.300000 -0.900000
v 0.000000 0.300000 -1.000000
v 0.000000 0.600000 -0.200000
v 0.000000 0.600000 -0.300000
v 0.000000 0.700000 -0.200000
v 0.000000 0.700000 -0.300000
v 0.000000 1.300000 -0.800000
v 0.000000 1.300000 -0.900000
v 0.000000 1.400000 0.000000
v 0.000000 1.400000 -0.800000
v 0.000000 1.400000 -0.900000
v 0.000000 1.400000 -1.100000
v 0.100000 0.100000 0.000000
v 0.100000 0.000000 -1.200000
v 0.100000 0.000000 0.000000
v 0.100000 0.100000 -1.100000
v 0.100000 0.100000 -1.200000
v 0.100000 0.200000 -1.100000
v 0.100000 1.300000 -1.100000
v 0.100000 1.300000 -1.200000
v 0.100000 1.400000 -0.800000
v 0.100000 1.300000 -0.900000
v 0.100000 1.300000 -0.800000
v 0.100000 1.400000 -0.900000
v 1.000000 0.000000 0.000000
v 1.000000 0.000000 -1.200000
v 1.000000 0.100000 0.000000
v 1.000000 0.100000 -1.000000
v 1.000000 0.200000 -1.000000
v 1.000000 0.200000 -1.100000
v 1.000000 0.200000 -1.200000
v 1.000000 1.300000 -1.100000
v 1.000000 1.300000 -1.200000
v 1.100000 0.100000 0.000000
v 1.100000 0.100000 -1.000000
v 1.100000 0.200000 -1.000000
v 1.100000 0.300000 0.000000
v 1.100000 0.300000 -0.400000
v 1.100000 0.300000 -0.500000
v 1.100000 0.200000 -1.100000
v 1.100000 0.300000 -1.000000
v 1.100000 0.400000 -0.400000
v 1.100000 0.400000 -0.500000
v 1.100000 1.400000 0.000000
v 1.100000 1.400000 -1.100000
v 0.100000 0.100000 0.000000
v 0.000000 0.200000 0.000000
v 0.000000 0.100000 0.000000
v 0.100000 0.200000 0.000000
v 0.000000 1.400000 0.000000
v 0.900000 0.100000 0.000000
v 0.100000 0.000000 0.000000
v 0.900000 0.200000 0.000000
v 1.000000 0.000000 0.000000
v 1.000000 0.100000 0.000000
v 1.000000 0.200000 0.000000
v 1.000000 0.300000 0.000000
v 1.100000 0.100000 0.000000
v 1.100000 0.300000 0.000000
v 1.100000 1.400000 0.000000
v 0.100000 1.300000 -0.900000
v 0.000000 1.400000 -0.900000
v 0.000000 1.300000 -0.900000
v 0.100000 1.400000 -0.900000
v 0.000000 1.300000 -0.800000
v 0.000000 1.400000 -0.800000
v 0.100000 1.300000 -0.800000
v 0.100000 1.400000 -0.800000
v 1.000000 0.100000 -1.000000
v 1.000000 0.200000 -1.000000
v 1.100000 0.100000 -1.000000
v 1.100000 0.200000 -1.000000
v 0.000000 0.100000 -1.100000
v 0.000000 0.200000 -1.100000
v 0.100000 0.100000 -1.100000
v 0.000000 1.400000 -1.100000
v 0.100000 0.200000 -1.100000
v 0.100000 1.300000 -1.100000
v 1.000000 1.300000 -1.100000
v 1.000000 0.200000 -1.100000
v 1.100000 0.200000 -1.100000
v 1.100000 1.400000 -1.100000
v 0.100000 0.000000 -1.200000
v 0.100000 0.100000 -1.200000
v 0.900000 0.100000 -1.200000
v 0.100000 1.300000 -1.200000
v 0.900000 0.200000 -1.200000
v 1.000000 0.000000 -1.200000
v 1.000000 0.200000 -1.200000
v 1.000000 1.300000 -1.200000
v 0.100000 0.000000 -1.200000
v 1.000000 0.000000 0.000000
v 0.100000 0.000000 0.000000
v 1.000000 0.000000 -1.200000
v 1.000000 0.100000 -1.000000
v 1.100000 0.100000 0.000000
v 1.000000 0.100000 0.000000
v 1.100000 0.100000 -1.000000
v 0.000000 0.100000 -1.100000
v 0.100000 0.100000 0.000000
v 0.000000 0.100000 0.000000
v 0.100000 0.100000 -1.100000
v 1.000000 0.200000 -1.100000
v 1.100000 0.200000 -1.000000
v 1.000000 0.200000 -1.000000
v 1.100000 0.200000 -1.100000
v 0.000000 1.300000 -0.800000
v 0.100000 1.300000 -0.800000
v 0.000000 1.300000 -0.900000
v 0.100000 1.300000 -0.900000
v 0.100000 1.300000 -1.100000
v 1.000000 1.300000 -1.100000
v 0.100000 1.300000 -1.200000
v 1.000000 1.300000 -1.200000
v 0.000000 1.400000 0.000000
v 1.100000 1.400000 0.000000
v 0.000000 1.400000 -0.800000
v 0.100000 1.400000 -0.800000
v 0.100000 1.400000 -0.900000
v 0.000000 1.400000 -0.900000
v 0.000000 1.400000 -1.100000
v 1.100000 1.400000 -1.100000
vt 0.068359 0.500000
vt 0.068359 0.500000
vt 0.068359 0.500000
vt 0.068359 0.500000
vt 0.068359 0.500000
vt 0.068359 0.500000
vt 0.068359 0.500000
vt 0.068359 0.500000
vt 0.064453 0.500000
vt 0.064453 0.500000
vt 0.064453 0.500000
vt 0.068359 0.500000
vt 0.064453 0.500000
vt 0.064453 0.500000
vt 0.064453 0.500000
vt 0.068359 0.500000
vt 0.068359 0.500000
vt 0.064453 0.500000
vt 0.064453 0.500000
vt 0.064453 0.500000
vt 0.064453 0.500000
vt 0.068359 0.500000
vt 0.064453 0.500000
vt 0.064453 0.500000
vt 0.064453 0.500000
vt 0.068359 0.500000
vt 0.068359 0.500000
vt 0.068359 0.500000
vt 0.064453 0.500000
vt 0.068359 0.500000
vt 0.064453 0.500000
vt 0.064453 0.500000
vt 0.064453 0.500000
vt 0.064453 0.500000
vt 0.064453 0.500000
vt 0.064453 0.500000
vt 0.068359 0.500000
vt 0.068359 0.500000
vt 0.068359 0.500000
vt 0.068359 0.500000
vt 0.068359 0.500000
vt 0.064453 0.500000
vt 0.064453 0.500000
vt 0.064453 0.500000
vt 0.064453 0.500000
vt 0.064453 0.500000
vt 0.064453 0.500000
vt 0.064453 0.500000
vt 0.064453 0.500000
vt 0.064453 0.500000
vt 0.068359 0.500000
vt 0.068359 0.500000
vt 0.068359 0.500000
vt 0.068359 0.500000
vt 0.068359 0.500000
vt 0.068359 0.500000
vt 0.068359 0.500000
vt 0.064453 0.500000
vt 0.064453 0.500000
vt 0.064453 0.500000
vt 0.064453 0.500000
vt 0.068359 0.500000
vt 0.068359 0.500000
vt 0.068359 0.500000
vt 0.068359 0.500000
vt 0.068359 0.500000
vt 0.068359 0.500000
vt 0.064453 0.500000
vt 0.064453 0.500000
vt 0.064453 0.500000
vt 0.068359 0.500000
vt 0.068359 0.500000
vt 0.064453 0.500000
vt 0.064453 0.500000
vt 0.064453 0.500000
vt 0.064453 0.500000
vt 0.064453 0.500000
vt 0.068359 0.500000
vt 0.064453 0.500000
vt 0.064453 0.500000
vt 0.068359 0.500000
vt 0.068359 0.500000
vt 0.068359 0.500000
vt 0.064453 0.500000
vt 0.064453 0.500000
vt 0.064453 0.500000
vt 0.068359 0.500000
vt 0.068359 0.500000
vt 0.068359 0.500000
vt 0.064453 0.500000
vt 0.064453 0.500000
vt 0.064453 0.500000
vt 0.068359 0.500000
vt 0.068359 0.500000
vt 0.068359 0.500000
vt 0.064453 0.500000
vt 0.068359 0.500000
vt 0.064453 0.500000
vt 0.068359 0.500000
vt 0.068359 0.500000
vt 0.064453 0.500000
vt 0.068359 0.500000
vt 0.064453 0.500000
vt 0.064453 0.500000
vt 0.064453 0.500000
vt 0.064453 0.500000
vt 0.064453 0.500000
vt 0.064453 0.500000
vt 0.064453 0.500000
vt 0.064453 0.500000
vt 0.064453 0.500000
vt 0.068359 0.500000
vt 0.068359 0.500000
vt 0.068359 0.500000
vt 0.068359 0.500000
vt 0.068359 0.500000
vt 0.068359 0.500000
vt 0.068359 0.500000
vt 0.064453 0.500000
vt 0.064453 0.500000
vt 0.064453 0.500000
vt 0.068359 0.500000
vt 0.064453 0.500000
vt 0.064453 0.500000
vt 0.064453 0.500000
vt 0.064453 0.500000
vt 0.064453 0.500000
vt 0.068359 0.500000
vt 0.068359 0.500000
vt 0.068359 0.500000
vt 0.064453 0.500000
vt 0.064453 0.500000
vt 0.064453 0.500000
vt 0.064453 0.500000
vt 0.068359 0.500000
vt 0.068359 0.500000
vt 0.064453 0.500000
vt 0.068359 0.500000
vt 0.064453 0.500000
vt 0.068359 0.500000
vt 0.068359 0.500000
vt 0.068359 0.500000
vt 0.068359 0.500000
vt 0.068359 0.500000
vt 0.068359 0.500000
vt 0.068359 0.500000
vt 0.068359 0.500000
vt 0.068359 0.500000
vt 0.068359 0.500000
vt 0.068359 0.500000
vt 0.068359 0.500000
vt 0.064453 0.500000
vt 0.064453 0.500000
vt 0.064453 0.500000
vt 0.064453 0.500000
vt 0.064453 0.500000
vt 0.064453 0.500000
vt 0.064453 0.500000
vt 0.064453 0.500000
vt 0.064453 0.500000
vt 0.064453 0.500000
vt 0.064453 0.500000
vt 0.064453 0.500000
vt 0.064453 0.500000
vt 0.064453 0.500000
vt 0.064453 0.500000
vt 0.064453 0.500000
vt 0.064453 0.500000
vt 0.064453 0.500000
vt 0.064453 0.500000
vt 0.064453 0.500000
vn -1.0000 0.0000 0.0000
vn 1.0000 0.0000 0.0000
vn 0.0000 -0.0000 1.0000
vn 0.0000 0.0000 -1.0000
vn 0.0000 -1.0000 -0.0000
vn 0.0000 1.0000 0.0000
usemtl palette.006
s 1
f 1/1/1 2/2/1 3/3/1
f 4/4/1 2/2/1 1/1/1
f 5/5/1 2/2/1 4/4/1
f 6/6/1 2/2/1 5/5/1
f 7/7/1 2/2/1 6/6/1
f 8/8/1 2/2/1 7/7/1
f 9/9/1 4/10/1 1/11/1
f 9/12/1 5/5/1 4/4/1
f 10/13/1 6/14/1 5/15/1
f 10/16/1 5/5/1 9/12/1
f 11/17/1 7/7/1 6/6/1
f 11/18/1 6/14/1 10/13/1
f 12/19/1 8/20/1 7/21/1
f 12/22/1 7/7/1 11/17/1
f 13/23/1 11/18/1 10/13/1
f 13/23/1 9/9/1 1/11/1
f 13/23/1 12/19/1 11/18/1
f 13/23/1 10/13/1 9/9/1
f 14/24/1 12/19/1 13/23/1
f 15/25/1 13/23/1 1/11/1
f 15/26/1 14/27/1 13/28/1
f 16/29/1 12/19/1 14/24/1
f 16/30/1 14/27/1 15/26/1
f 17/31/1 16/29/1 15/25/1
f 17/31/1 12/19/1 16/29/1
f 18/32/1 12/19/1 17/31/1
f 19/33/1 15/25/1 1/11/1
f 19/33/1 17/31/1 15/25/1
f 20/34/1 17/31/1 19/33/1
f 21/35/1 12/19/1 18/32/1
f 22/36/1 8/20/1 12/19/1
f 22/36/1 12/19/1 21/35/1
f 23/37/1 24/38/1 25/39/1
f 26/40/1 24/38/1 23/37/1
f 27/41/1 24/38/1 26/40/1
f 28/42/1 27/43/1 26/44/1
f 29/45/1 27/43/1 28/42/1
f 30/46/1 27/43/1 29/45/1
f 31/47/1 32/48/1 33/49/1
f 34/50/1 32/48/1 31/47/1
f 35/51/2 36/52/2 37/53/2
f 37/53/2 36/52/2 38/54/2
f 38/54/2 36/52/2 39/55/2
f 39/55/2 36/52/2 40/56/2
f 40/56/2 36/52/2 41/57/2
f 40/58/2 41/59/2 42/60/2
f 42/60/2 41/59/2 43/61/2
f 44/62/2 45/63/2 46/64/2
f 44/62/2 46/64/2 47/65/2
f 47/65/2 46/64/2 48/66/2
f 48/66/2 46/64/2 49/67/2
f 46/68/2 50/69/2 51/70/2
f 49/67/2 46/64/2 51/71/2
f 48/66/2 49/67/2 52/72/2
f 47/73/2 48/74/2 52/75/2
f 49/76/2 51/70/2 53/77/2
f 52/72/2 49/67/2 53/78/2
f 47/73/2 52/75/2 54/79/2
f 52/75/2 53/77/2 54/79/2
f 51/70/2 50/69/2 55/80/2
f 54/79/2 53/77/2 55/80/2
f 53/77/2 51/70/2 55/80/2
f 56/81/3 57/82/3 58/83/3
f 59/84/3 60/85/3 57/86/3
f 59/87/3 57/82/3 56/81/3
f 61/88/3 56/81/3 62/89/3
f 61/90/3 59/84/3 56/91/3
f 63/92/3 60/85/3 59/84/3
f 63/92/3 59/84/3 61/90/3
f 64/93/3 61/88/3 62/89/3
f 64/93/3 63/94/3 61/88/3
f 65/95/3 63/94/3 64/93/3
f 66/96/3 60/85/3 63/92/3
f 66/97/3 63/94/3 65/95/3
f 67/98/3 60/85/3 66/96/3
f 68/99/3 66/97/3 65/95/3
f 68/99/3 67/100/3 66/97/3
f 69/101/3 60/85/3 67/98/3
f 69/102/3 67/100/3 68/99/3
f 70/103/3 60/85/3 69/101/3
f 71/104/3 72/105/3 73/106/3
f 74/107/3 72/105/3 71/104/3
f 75/108/4 76/109/4 77/110/4
f 77/110/4 76/109/4 78/111/4
f 79/112/4 80/113/4 81/114/4
f 81/114/4 80/113/4 82/115/4
f 83/116/4 84/117/4 85/118/4
f 84/119/4 86/120/4 87/121/4
f 85/118/4 84/117/4 87/122/4
f 87/121/4 86/120/4 88/123/4
f 88/123/4 86/120/4 89/124/4
f 90/125/4 89/124/4 91/126/4
f 89/124/4 86/120/4 92/127/4
f 91/126/4 89/124/4 92/127/4
f 93/128/4 94/129/4 95/130/4
f 94/131/4 96/132/4 95/133/4
f 95/133/4 96/132/4 97/134/4
f 93/128/4 95/130/4 98/135/4
f 95/130/4 97/136/4 98/135/4
f 97/134/4 96/132/4 99/137/4
f 98/135/4 97/136/4 99/138/4
f 99/137/4 96/132/4 100/139/4
f 101/140/5 102/141/5 103/142/5
f 104/143/5 102/141/5 101/140/5
f 105/144/5 106/145/5 107/146/5
f 108/147/5 106/145/5 105/144/5
f 109/148/5 110/149/5 111/150/5
f 112/151/5 110/149/5 109/148/5
f 113/152/5 114/153/5 115/154/5
f 116/155/5 114/153/5 113/152/5
f 117/156/6 118/157/6 119/158/6
f 119/158/6 118/157/6 120/159/6
f 121/160/6 122/161/6 123/162/6
f 123/162/6 122/161/6 124/163/6
f 125/164/6 126/165/6 127/166/6
f 127/166/6 126/165/6 128/167/6
f 128/167/6 126/165/6 129/168/6
f 130/169/6 129/168/6 131/170/6
f 129/168/6 126/165/6 132/171/6
f 131/170/6 129/168/6 132/171/6
