# MagicaVoxel @ Ephtracy

# group
o 

# material
mtllib DoorsWindowsWalls-9.mtl
usemtl palette

# normals
vn -1 0 0
vn 1 0 0
vn 0 0 1
vn 0 0 -1
vn 0 -1 0
vn 0 1 0

# texcoords
vt 0.0175781 0.5
vt 0.0214844 0.5
vt 0.0253906 0.5

# verts
v -0.6 0 0.6
v -0.6 0 5.96046e-08
v -0.6 0.3 0.4
v -0.6 0.3 0.3
v -0.6 0.4 0.6
v -0.6 0.4 0.5
v -0.6 0.4 0.4
v -0.6 0.4 0.3
v -0.6 0.4 0.2
v -0.6 0.5 0.4
v -0.6 0.5 0.2
v -0.6 0.6 0.3
v -0.6 0.6 0.2
v -0.6 0.6 0.1
v -0.6 0.7 0.6
v -0.6 0.7 0.5
v -0.6 0.7 0.3
v -0.6 0.7 0.2
v -0.6 0.9 0.3
v -0.6 0.9 0.2
v -0.6 1 0.6
v -0.6 1 0.5
v -0.6 1.1 0.2
v -0.6 1.1 0.1
v -0.6 1.4 0.6
v -0.6 1.4 0.5
v -0.6 1.5 0.5
v -0.6 1.5 0.4
v -0.6 1.7 0.6
v -0.6 1.7 0.5
v -0.6 2.2 0.2
v -0.6 2.2 0.1
v -0.6 2.4 0.5
v -0.6 2.4 0.4
v -0.6 2.5 0.2
v -0.6 2.5 0.1
v -0.6 2.8 0.5
v -0.6 2.8 0.4
v -0.6 3 0.5
v -0.6 3 0.4
v -0.6 3.5 0.2
v -0.6 3.5 0.1
v -0.6 3.8 0.2
v -0.6 3.8 0.1
v -0.6 4.3 0.4
v -0.6 4.3 0.3
v -0.6 4.3 0.2
v -0.6 4.8 0.5
v -0.6 4.8 0.4
v -0.6 4.8 0.2
v -0.6 4.8 0.1
v -0.6 5.3 0.3
v -0.6 5.3 0.2
v -0.6 5.4 0.2
v -0.6 5.4 0.1
v -0.6 5.8 0.4
v -0.6 5.8 0.3
v -0.6 6.1 0.3
v -0.6 6.1 0.2
v -0.6 6.2 0.6
v -0.6 6.2 0.1
v -0.6 6.2 5.96046e-08
v -0.6 6.3 0.6
v -0.6 6.3 5.96046e-08
v -5.96046e-08 0 0.6
v -5.96046e-08 0 5.96046e-08
v -5.96046e-08 0.3 0.3
v -5.96046e-08 0.3 0.2
v -5.96046e-08 0.4 0.5
v -5.96046e-08 0.4 0.4
v -5.96046e-08 0.5 0.1
v -5.96046e-08 0.5 5.96046e-08
v -5.96046e-08 0.6 0.4
v -5.96046e-08 0.6 0.3
v -5.96046e-08 0.6 0.2
v -5.96046e-08 0.6 0.1
v -5.96046e-08 0.9 0.1
v -5.96046e-08 0.9 5.96046e-08
v -5.96046e-08 1 0.4
v -5.96046e-08 1 0.3
v -5.96046e-08 1 0.2
v -5.96046e-08 1.2 0.5
v -5.96046e-08 1.2 0.4
v -5.96046e-08 1.2 0.2
v -5.96046e-08 1.2 0.1
v -5.96046e-08 1.4 0.3
v -5.96046e-08 1.4 0.2
v -5.96046e-08 1.6 0.3
v -5.96046e-08 1.6 0.2
v -5.96046e-08 1.7 0.1
v -5.96046e-08 1.7 5.96046e-08
v -5.96046e-08 1.9 0.1
v -5.96046e-08 1.9 5.96046e-08
v -5.96046e-08 2 0.5
v -5.96046e-08 2 0.4
v -5.96046e-08 2 0.3
v -5.96046e-08 2 0.2
v -5.96046e-08 2.4 0.5
v -5.96046e-08 2.4 0.4
v -5.96046e-08 2.6 0.2
v -5.96046e-08 2.6 0.1
v -5.96046e-08 2.8 0.4
v -5.96046e-08 2.8 0.3
v -5.96046e-08 2.8 0.2
v -5.96046e-08 2.8 0.1
v -5.96046e-08 3 0.4
v -5.96046e-08 3 0.3
v -5.96046e-08 3.1 0.2
v -5.96046e-08 3.1 0.1
v -5.96046e-08 3.2 0.3
v -5.96046e-08 3.2 0.2
v -5.96046e-08 3.2 0.1
v -5.96046e-08 3.4 0.4
v -5.96046e-08 3.4 0.3
v -5.96046e-08 3.7 0.3
v -5.96046e-08 3.7 0.2
v -5.96046e-08 4.6 0.4
v -5.96046e-08 4.6 0.3
v -5.96046e-08 4.8 0.2
v -5.96046e-08 4.8 0.1
v -5.96046e-08 5.2 0.2
v -5.96046e-08 5.2 0.1
v -5.96046e-08 5.3 0.3
v -5.96046e-08 5.3 0.2
v -5.96046e-08 5.5 0.4
v -5.96046e-08 5.5 0.3
v -5.96046e-08 5.5 0.1
v -5.96046e-08 5.5 5.96046e-08
v -5.96046e-08 5.9 0.2
v -5.96046e-08 5.9 0.1
v -5.96046e-08 5.9 5.96046e-08
v -5.96046e-08 6 0.5
v -5.96046e-08 6 0.4
v -5.96046e-08 6.2 0.6
v -5.96046e-08 6.2 0.5
v -5.96046e-08 6.2 0.4
v -5.96046e-08 6.2 0.3
v -5.96046e-08 6.2 0.1
v -5.96046e-08 6.2 5.96046e-08
v -5.96046e-08 6.3 0.6
v -5.96046e-08 6.3 5.96046e-08
v -0.6 0 0.6
v -0.6 0.4 0.6
v -0.6 0.7 0.6
v -0.6 1 0.6
v -0.6 1.4 0.6
v -0.6 1.7 0.6
v -0.6 6.2 0.6
v -0.6 6.3 0.6
v -0.5 0.4 0.6
v -0.5 0.5 0.6
v -0.5 0.7 0.6
v -0.5 1 0.6
v -0.5 1.4 0.6
v -0.5 1.7 0.6
v -0.5 2.6 0.6
v -0.5 2.7 0.6
v -0.5 3.5 0.6
v -0.5 4.1 0.6
v -0.5 4.8 0.6
v -0.5 5.2 0.6
v -0.5 6 0.6
v -0.4 0.3 0.6
v -0.4 0.5 0.6
v -0.4 2 0.6
v -0.4 2.6 0.6
v -0.4 2.7 0.6
v -0.4 3.5 0.6
v -0.4 3.6 0.6
v -0.4 4.1 0.6
v -0.4 4.8 0.6
v -0.4 5.2 0.6
v -0.4 5.5 0.6
v -0.4 6 0.6
v -0.3 0.3 0.6
v -0.3 0.4 0.6
v -0.3 0.6 0.6
v -0.3 1.2 0.6
v -0.3 2 0.6
v -0.3 3.6 0.6
v -0.3 3.7 0.6
v -0.3 5.4 0.6
v -0.3 5.5 0.6
v -0.3 5.9 0.6
v -0.2 0.4 0.6
v -0.2 0.6 0.6
v -0.2 0.8 0.6
v -0.2 1.2 0.6
v -0.2 1.3 0.6
v -0.2 2.1 0.6
v -0.2 3.7 0.6
v -0.2 5.4 0.6
v -0.2 5.9 0.6
v -0.1 0.8 0.6
v -0.1 1.3 0.6
v -0.1 2.1 0.6
v -0.1 5.4 0.6
v -0.1 6.2 0.6
v -5.96046e-08 0 0.6
v -5.96046e-08 6.2 0.6
v -5.96046e-08 6.3 0.6
v -0.6 0 5.96046e-08
v -0.6 6.2 5.96046e-08
v -0.6 6.3 5.96046e-08
v -0.5 0.3 5.96046e-08
v -0.5 2 5.96046e-08
v -0.5 2.7 5.96046e-08
v -0.5 3 5.96046e-08
v -0.5 6.2 5.96046e-08
v -0.4 0.3 5.96046e-08
v -0.4 0.4 5.96046e-08
v -0.4 0.6 5.96046e-08
v -0.4 2 5.96046e-08
v -0.4 2.7 5.96046e-08
v -0.4 2.9 5.96046e-08
v -0.4 3 5.96046e-08
v -0.4 3.1 5.96046e-08
v -0.4 4.4 5.96046e-08
v -0.4 4.5 5.96046e-08
v -0.4 4.7 5.96046e-08
v -0.4 5.1 5.96046e-08
v -0.4 5.2 5.96046e-08
v -0.4 5.4 5.96046e-08
v -0.4 6 5.96046e-08
v -0.4 6.2 5.96046e-08
v -0.3 0.4 5.96046e-08
v -0.3 0.6 5.96046e-08
v -0.3 0.7 5.96046e-08
v -0.3 1.4 5.96046e-08
v -0.3 2.7 5.96046e-08
v -0.3 2.9 5.96046e-08
v -0.3 3.1 5.96046e-08
v -0.3 4.4 5.96046e-08
v -0.3 4.5 5.96046e-08
v -0.3 4.7 5.96046e-08
v -0.3 5.1 5.96046e-08
v -0.3 5.2 5.96046e-08
v -0.3 5.3 5.96046e-08
v -0.3 5.4 5.96046e-08
v -0.3 6 5.96046e-08
v -0.3 6.2 5.96046e-08
v -0.2 0.3 5.96046e-08
v -0.2 0.7 5.96046e-08
v -0.2 0.8 5.96046e-08
v -0.2 1 5.96046e-08
v -0.2 1.4 5.96046e-08
v -0.2 1.8 5.96046e-08
v -0.2 2.6 5.96046e-08
v -0.2 4.2 5.96046e-08
v -0.2 4.4 5.96046e-08
v -0.2 4.5 5.96046e-08
v -0.2 5.2 5.96046e-08
v -0.2 5.3 5.96046e-08
v -0.2 5.4 5.96046e-08
v -0.2 6 5.96046e-08
v -0.2 6.2 5.96046e-08
v -0.1 0.3 5.96046e-08
v -0.1 0.5 5.96046e-08
v -0.1 0.7 5.96046e-08
v -0.1 0.8 5.96046e-08
v -0.1 0.9 5.96046e-08
v -0.1 1 5.96046e-08
v -0.1 1.7 5.96046e-08
v -0.1 1.8 5.96046e-08
v -0.1 1.9 5.96046e-08
v -0.1 2.6 5.96046e-08
v -0.1 4.2 5.96046e-08
v -0.1 4.4 5.96046e-08
v -0.1 5.2 5.96046e-08
v -0.1 5.3 5.96046e-08
v -0.1 5.5 5.96046e-08
v -0.1 5.9 5.96046e-08
v -0.1 6 5.96046e-08
v -0.1 6.2 5.96046e-08
v -5.96046e-08 0 5.96046e-08
v -5.96046e-08 0.5 5.96046e-08
v -5.96046e-08 0.9 5.96046e-08
v -5.96046e-08 1.7 5.96046e-08
v -5.96046e-08 1.9 5.96046e-08
v -5.96046e-08 5.5 5.96046e-08
v -5.96046e-08 5.9 5.96046e-08
v -5.96046e-08 6.2 5.96046e-08
v -5.96046e-08 6.3 5.96046e-08
v -0.6 0 0.6
v -5.96046e-08 0 0.6
v -0.6 0 5.96046e-08
v -5.96046e-08 0 5.96046e-08
v -0.6 6.3 0.6
v -5.96046e-08 6.3 0.6
v -0.6 6.3 5.96046e-08
v -5.96046e-08 6.3 5.96046e-08

# faces
f 3/3/1 2/3/1 1/3/1
f 4/3/1 2/3/1 3/3/1
f 5/3/1 3/3/1 1/3/1
f 6/3/1 3/3/1 5/3/1
f 7/2/1 4/2/1 3/2/1
f 7/3/1 3/3/1 6/3/1
f 8/3/1 2/3/1 4/3/1
f 8/2/1 4/2/1 7/2/1
f 9/3/1 2/3/1 8/3/1
f 10/2/1 7/2/1 6/2/1
f 10/2/1 8/2/1 7/2/1
f 10/2/1 9/2/1 8/2/1
f 11/3/1 2/3/1 9/3/1
f 11/2/1 9/2/1 10/2/1
f 12/1/1 11/1/1 10/1/1
f 13/3/1 2/3/1 11/3/1
f 13/1/1 11/1/1 12/1/1
f 14/3/1 2/3/1 13/3/1
f 15/1/1 6/1/1 5/1/1
f 16/2/1 10/2/1 6/2/1
f 16/1/1 6/1/1 15/1/1
f 17/1/1 12/1/1 10/1/1
f 17/2/1 13/2/1 12/2/1
f 17/2/1 14/2/1 13/2/1
f 18/2/1 14/2/1 17/2/1
f 19/1/1 17/1/1 10/1/1
f 19/1/1 18/1/1 17/1/1
f 20/2/1 14/2/1 18/2/1
f 20/1/1 18/1/1 19/1/1
f 21/2/1 16/2/1 15/2/1
f 22/2/1 10/2/1 16/2/1
f 22/2/1 16/2/1 21/2/1
f 23/2/1 14/2/1 20/2/1
f 23/2/1 20/2/1 19/2/1
f 24/3/1 2/3/1 14/3/1
f 24/2/1 14/2/1 23/2/1
f 25/1/1 22/1/1 21/1/1
f 26/2/1 10/2/1 22/2/1
f 26/1/1 22/1/1 25/1/1
f 27/2/1 26/2/1 25/2/1
f 27/2/1 10/2/1 26/2/1
f 28/1/1 19/1/1 10/1/1
f 28/2/1 10/2/1 27/2/1
f 29/2/1 27/2/1 25/2/1
f 30/1/1 28/1/1 27/1/1
f 30/2/1 27/2/1 29/2/1
f 31/2/1 23/2/1 19/2/1
f 31/1/1 24/1/1 23/1/1
f 32/3/1 2/3/1 24/3/1
f 32/1/1 24/1/1 31/1/1
f 33/1/1 28/1/1 30/1/1
f 33/1/1 30/1/1 29/1/1
f 34/1/1 19/1/1 28/1/1
f 34/1/1 28/1/1 33/1/1
f 35/2/1 31/2/1 19/2/1
f 35/2/1 32/2/1 31/2/1
f 36/3/1 2/3/1 32/3/1
f 36/2/1 32/2/1 35/2/1
f 37/1/1 33/1/1 29/1/1
f 37/2/1 34/2/1 33/2/1
f 38/1/1 19/1/1 34/1/1
f 38/2/1 34/2/1 37/2/1
f 39/1/1 37/1/1 29/1/1
f 39/1/1 38/1/1 37/1/1
f 40/1/1 19/1/1 38/1/1
f 40/1/1 38/1/1 39/1/1
f 41/2/1 35/2/1 19/2/1
f 41/1/1 36/1/1 35/1/1
f 42/3/1 2/3/1 36/3/1
f 42/1/1 36/1/1 41/1/1
f 43/2/1 41/2/1 19/2/1
f 43/2/1 42/2/1 41/2/1
f 44/3/1 2/3/1 42/3/1
f 44/2/1 42/2/1 43/2/1
f 45/1/1 19/1/1 40/1/1
f 45/2/1 40/2/1 39/2/1
f 46/2/1 43/2/1 19/2/1
f 46/1/1 19/1/1 45/1/1
f 47/1/1 44/1/1 43/1/1
f 47/2/1 43/2/1 46/2/1
f 48/2/1 45/2/1 39/2/1
f 48/1/1 39/1/1 29/1/1
f 48/2/1 46/2/1 45/2/1
f 49/2/1 46/2/1 48/2/1
f 50/1/1 44/1/1 47/1/1
f 50/1/1 47/1/1 46/1/1
f 51/3/1 2/3/1 44/3/1
f 51/1/1 44/1/1 50/1/1
f 52/1/1 50/1/1 46/1/1
f 52/2/1 46/2/1 49/2/1
f 53/2/1 51/2/1 50/2/1
f 53/1/1 50/1/1 52/1/1
f 54/2/1 53/2/1 52/2/1
f 54/2/1 51/2/1 53/2/1
f 55/3/1 2/3/1 51/3/1
f 55/2/1 51/2/1 54/2/1
f 56/2/1 54/2/1 52/2/1
f 56/2/1 52/2/1 49/2/1
f 56/1/1 49/1/1 48/1/1
f 57/2/1 54/2/1 56/2/1
f 58/1/1 57/1/1 56/1/1
f 58/2/1 54/2/1 57/2/1
f 59/1/1 55/1/1 54/1/1
f 59/2/1 54/2/1 58/2/1
f 60/1/1 58/1/1 56/1/1
f 60/1/1 48/1/1 29/1/1
f 60/1/1 59/1/1 58/1/1
f 60/1/1 56/1/1 48/1/1
f 61/3/1 2/3/1 55/3/1
f 61/1/1 59/1/1 60/1/1
f 61/1/1 55/1/1 59/1/1
f 62/3/1 2/3/1 61/3/1
f 63/2/1 61/2/1 60/2/1
f 63/2/1 62/2/1 61/2/1
f 64/2/1 62/2/1 63/2/1
f 65/3/2 66/3/2 67/3/2
f 67/3/2 66/3/2 68/3/2
f 65/3/2 67/3/2 69/3/2
f 69/3/2 67/3/2 70/3/2
f 68/3/2 66/3/2 71/3/2
f 71/3/2 66/3/2 72/3/2
f 70/3/2 67/3/2 73/3/2
f 69/2/2 70/2/2 73/2/2
f 67/2/2 68/2/2 74/2/2
f 73/3/2 67/3/2 74/3/2
f 68/3/2 71/3/2 75/3/2
f 74/2/2 68/2/2 75/2/2
f 71/2/2 72/2/2 76/2/2
f 75/3/2 71/3/2 76/3/2
f 75/2/2 76/2/2 77/2/2
f 76/2/2 72/2/2 77/2/2
f 77/2/2 72/2/2 78/2/2
f 69/2/2 73/2/2 79/2/2
f 73/2/2 74/2/2 79/2/2
f 74/3/2 75/3/2 80/3/2
f 79/2/2 74/2/2 80/2/2
f 75/2/2 77/2/2 81/2/2
f 80/3/2 75/3/2 81/3/2
f 65/3/2 69/3/2 82/3/2
f 69/2/2 79/2/2 82/2/2
f 79/3/2 80/3/2 83/3/2
f 82/2/2 79/2/2 83/2/2
f 81/2/2 77/2/2 84/2/2
f 80/2/2 81/2/2 84/2/2
f 77/1/2 78/1/2 85/1/2
f 84/2/2 77/2/2 85/2/2
f 83/3/2 80/3/2 86/3/2
f 80/2/2 84/2/2 86/2/2
f 84/3/2 85/3/2 87/3/2
f 86/2/2 84/2/2 87/2/2
f 83/3/2 86/3/2 88/3/2
f 86/1/2 87/1/2 88/1/2
f 87/3/2 85/3/2 89/3/2
f 88/1/2 87/1/2 89/1/2
f 85/1/2 78/1/2 90/1/2
f 89/3/2 85/3/2 90/3/2
f 90/1/2 78/1/2 91/1/2
f 89/3/2 90/3/2 92/3/2
f 90/2/2 91/2/2 92/2/2
f 92/2/2 91/2/2 93/2/2
f 82/1/2 83/1/2 94/1/2
f 65/3/2 82/3/2 94/3/2
f 83/3/2 88/3/2 95/3/2
f 94/1/2 83/1/2 95/1/2
f 88/2/2 89/2/2 96/2/2
f 95/3/2 88/3/2 96/3/2
f 89/3/2 92/3/2 97/3/2
f 96/2/2 89/2/2 97/2/2
f 94/2/2 95/2/2 98/2/2
f 65/3/2 94/3/2 98/3/2
f 95/3/2 96/3/2 99/3/2
f 98/2/2 95/2/2 99/2/2
f 97/3/2 92/3/2 100/3/2
f 96/1/2 97/1/2 100/1/2
f 92/1/2 93/1/2 101/1/2
f 100/3/2 92/3/2 101/3/2
f 99/3/2 96/3/2 102/3/2
f 98/1/2 99/1/2 102/1/2
f 96/1/2 100/1/2 103/1/2
f 102/3/2 96/3/2 103/3/2
f 100/2/2 101/2/2 104/2/2
f 103/1/2 100/1/2 104/1/2
f 101/1/2 93/1/2 105/1/2
f 104/2/2 101/2/2 105/2/2
f 102/2/2 103/2/2 106/2/2
f 98/1/2 102/1/2 106/1/2
f 103/3/2 104/3/2 107/3/2
f 106/2/2 103/2/2 107/2/2
f 104/1/2 105/1/2 108/1/2
f 107/3/2 104/3/2 108/3/2
f 105/1/2 93/1/2 109/1/2
f 108/1/2 105/1/2 109/1/2
f 107/3/2 108/3/2 110/3/2
f 106/1/2 107/1/2 110/1/2
f 108/2/2 109/2/2 111/2/2
f 110/3/2 108/3/2 111/3/2
f 109/1/2 93/1/2 112/1/2
f 111/2/2 109/2/2 112/2/2
f 98/1/2 106/1/2 113/1/2
f 106/1/2 110/1/2 113/1/2
f 110/2/2 111/2/2 114/2/2
f 113/1/2 110/1/2 114/1/2
f 113/2/2 114/2/2 115/2/2
f 114/2/2 111/2/2 115/2/2
f 111/3/2 112/3/2 116/3/2
f 115/2/2 111/2/2 116/2/2
f 98/1/2 113/1/2 117/1/2
f 113/2/2 115/2/2 117/2/2
f 115/1/2 116/1/2 118/1/2
f 117/2/2 115/2/2 118/2/2
f 116/3/2 112/3/2 119/3/2
f 118/1/2 116/1/2 119/1/2
f 117/1/2 118/1/2 119/1/2
f 112/1/2 93/1/2 120/1/2
f 119/3/2 112/3/2 120/3/2
f 117/1/2 119/1/2 121/1/2
f 119/2/2 120/2/2 121/2/2
f 120/1/2 93/1/2 122/1/2
f 121/2/2 120/2/2 122/2/2
f 117/1/2 121/1/2 123/1/2
f 121/1/2 122/1/2 123/1/2
f 123/1/2 122/1/2 124/1/2
f 98/1/2 117/1/2 125/1/2
f 117/1/2 123/1/2 125/1/2
f 123/2/2 124/2/2 126/2/2
f 125/1/2 123/1/2 126/1/2
f 122/1/2 93/1/2 127/1/2
f 124/1/2 122/1/2 127/1/2
f 127/1/2 93/1/2 128/1/2
f 126/2/2 124/2/2 129/2/2
f 124/1/2 127/1/2 129/1/2
f 127/2/2 128/2/2 130/2/2
f 129/1/2 127/1/2 130/1/2
f 130/2/2 128/2/2 131/2/2
f 65/3/2 98/3/2 132/3/2
f 98/1/2 125/1/2 132/1/2
f 125/3/2 126/3/2 133/3/2
f 132/1/2 125/1/2 133/1/2
f 65/3/2 132/3/2 134/3/2
f 132/2/2 133/2/2 135/2/2
f 134/3/2 132/3/2 135/3/2
f 133/3/2 126/3/2 136/3/2
f 135/2/2 133/2/2 136/2/2
f 126/2/2 129/2/2 137/2/2
f 136/3/2 126/3/2 137/3/2
f 129/2/2 130/2/2 137/2/2
f 130/1/2 131/1/2 138/1/2
f 137/2/2 130/2/2 138/2/2
f 138/1/2 131/1/2 139/1/2
f 134/2/2 135/2/2 140/2/2
f 136/2/2 137/2/2 140/2/2
f 138/2/2 139/2/2 140/2/2
f 137/2/2 138/2/2 140/2/2
f 135/2/2 136/2/2 140/2/2
f 140/2/2 139/2/2 141/2/2
f 150/3/3 143/3/3 142/3/3
f 150/1/3 144/1/3 143/1/3
f 151/1/3 144/1/3 150/1/3
f 152/2/3 145/2/3 144/2/3
f 152/1/3 144/1/3 151/1/3
f 153/1/3 146/1/3 145/1/3
f 153/2/3 145/2/3 152/2/3
f 154/2/3 147/2/3 146/2/3
f 154/1/3 146/1/3 153/1/3
f 155/1/3 148/1/3 147/1/3
f 155/2/3 147/2/3 154/2/3
f 156/1/3 148/1/3 155/1/3
f 157/1/3 148/1/3 156/1/3
f 158/1/3 148/1/3 157/1/3
f 159/1/3 148/1/3 158/1/3
f 160/1/3 148/1/3 159/1/3
f 161/1/3 148/1/3 160/1/3
f 162/1/3 148/1/3 161/1/3
f 163/3/3 151/3/3 150/3/3
f 163/3/3 150/3/3 142/3/3
f 164/2/3 154/2/3 153/2/3
f 164/3/3 151/3/3 163/3/3
f 164/2/3 152/2/3 151/2/3
f 164/2/3 153/2/3 152/2/3
f 164/2/3 155/2/3 154/2/3
f 164/2/3 156/2/3 155/2/3
f 165/2/3 156/2/3 164/2/3
f 166/1/3 157/1/3 156/1/3
f 166/2/3 156/2/3 165/2/3
f 167/2/3 158/2/3 157/2/3
f 167/1/3 157/1/3 166/1/3
f 168/1/3 159/1/3 158/1/3
f 168/2/3 158/2/3 167/2/3
f 169/1/3 159/1/3 168/1/3
f 170/2/3 160/2/3 159/2/3
f 170/1/3 159/1/3 169/1/3
f 171/1/3 161/1/3 160/1/3
f 171/2/3 160/2/3 170/2/3
f 172/2/3 162/2/3 161/2/3
f 172/1/3 161/1/3 171/1/3
f 173/2/3 162/2/3 172/2/3
f 174/1/3 148/1/3 162/1/3
f 174/2/3 162/2/3 173/2/3
f 175/3/3 163/3/3 142/3/3
f 175/2/3 165/2/3 164/2/3
f 175/2/3 164/2/3 163/2/3
f 176/2/3 165/2/3 175/2/3
f 177/2/3 165/2/3 176/2/3
f 178/2/3 165/2/3 177/2/3
f 179/1/3 169/1/3 168/1/3
f 179/2/3 165/2/3 178/2/3
f 179/1/3 167/1/3 166/1/3
f 179/1/3 166/1/3 165/1/3
f 179/1/3 168/1/3 167/1/3
f 180/2/3 173/2/3 172/2/3
f 180/1/3 169/1/3 179/1/3
f 180/2/3 170/2/3 169/2/3
f 180/2/3 171/2/3 170/2/3
f 180/2/3 172/2/3 171/2/3
f 181/2/3 173/2/3 180/2/3
f 182/2/3 173/2/3 181/2/3
f 183/1/3 174/1/3 173/1/3
f 183/2/3 173/2/3 182/2/3
f 184/1/3 174/1/3 183/1/3
f 185/2/3 177/2/3 176/2/3
f 185/3/3 176/3/3 175/3/3
f 186/1/3 178/1/3 177/1/3
f 186/2/3 177/2/3 185/2/3
f 187/1/3 178/1/3 186/1/3
f 188/2/3 179/2/3 178/2/3
f 188/1/3 178/1/3 187/1/3
f 188/2/3 180/2/3 179/2/3
f 188/2/3 181/2/3 180/2/3
f 189/2/3 181/2/3 188/2/3
f 190/2/3 181/2/3 189/2/3
f 191/1/3 182/1/3 181/1/3
f 191/2/3 181/2/3 190/2/3
f 192/2/3 184/2/3 183/2/3
f 192/1/3 182/1/3 191/1/3
f 192/2/3 183/2/3 182/2/3
f 193/1/3 174/1/3 184/1/3
f 193/2/3 184/2/3 192/2/3
f 194/3/3 187/3/3 186/3/3
f 194/3/3 186/3/3 185/3/3
f 194/2/3 189/2/3 188/2/3
f 194/2/3 188/2/3 187/2/3
f 195/3/3 190/3/3 189/3/3
f 195/2/3 189/2/3 194/2/3
f 196/2/3 192/2/3 191/2/3
f 196/3/3 190/3/3 195/3/3
f 196/2/3 191/2/3 190/2/3
f 197/1/3 193/1/3 192/1/3
f 197/2/3 192/2/3 196/2/3
f 198/2/3 149/2/3 148/2/3
f 198/1/3 193/1/3 197/1/3
f 198/1/3 148/1/3 174/1/3
f 198/1/3 174/1/3 193/1/3
f 199/3/3 197/3/3 196/3/3
f 199/3/3 196/3/3 195/3/3
f 199/3/3 198/3/3 197/3/3
f 199/3/3 194/3/3 185/3/3
f 199/3/3 185/3/3 175/3/3
f 199/3/3 175/3/3 142/3/3
f 199/3/3 195/3/3 194/3/3
f 200/2/3 149/2/3 198/2/3
f 200/3/3 198/3/3 199/3/3
f 201/2/3 149/2/3 200/2/3
f 202/3/4 203/3/4 205/3/4
f 205/3/4 203/3/4 206/3/4
f 206/3/4 203/3/4 207/3/4
f 207/3/4 203/3/4 208/3/4
f 203/2/4 204/2/4 209/2/4
f 208/3/4 203/3/4 209/3/4
f 202/3/4 205/3/4 210/3/4
f 205/2/4 206/2/4 210/2/4
f 210/2/4 206/2/4 211/2/4
f 211/2/4 206/2/4 212/2/4
f 206/1/4 207/1/4 213/1/4
f 212/2/4 206/2/4 213/2/4
f 207/2/4 208/2/4 214/2/4
f 213/1/4 207/1/4 214/1/4
f 214/2/4 208/2/4 215/2/4
f 208/1/4 209/1/4 216/1/4
f 215/2/4 208/2/4 216/2/4
f 216/1/4 209/1/4 217/1/4
f 217/1/4 209/1/4 218/1/4
f 218/1/4 209/1/4 219/1/4
f 219/1/4 209/1/4 220/1/4
f 220/1/4 209/1/4 221/1/4
f 221/1/4 209/1/4 222/1/4
f 222/1/4 209/1/4 223/1/4
f 223/1/4 209/1/4 224/1/4
f 209/2/4 204/2/4 225/2/4
f 224/1/4 209/1/4 225/1/4
f 211/2/4 212/2/4 226/2/4
f 210/3/4 211/3/4 226/3/4
f 212/3/4 213/3/4 227/3/4
f 226/2/4 212/2/4 227/2/4
f 213/3/4 214/3/4 227/3/4
f 227/3/4 214/3/4 228/3/4
f 228/3/4 214/3/4 229/3/4
f 214/2/4 215/2/4 230/2/4
f 229/3/4 214/3/4 230/3/4
f 215/1/4 216/1/4 231/1/4
f 230/2/4 215/2/4 231/2/4
f 216/1/4 217/1/4 231/1/4
f 217/2/4 218/2/4 232/2/4
f 231/1/4 217/1/4 232/1/4
f 218/3/4 219/3/4 233/3/4
f 232/2/4 218/2/4 233/2/4
f 219/2/4 220/2/4 234/2/4
f 233/3/4 219/3/4 234/3/4
f 220/1/4 221/1/4 235/1/4
f 234/2/4 220/2/4 235/2/4
f 221/2/4 222/2/4 236/2/4
f 235/1/4 221/1/4 236/1/4
f 222/3/4 223/3/4 237/3/4
f 236/2/4 222/2/4 237/2/4
f 237/3/4 223/3/4 238/3/4
f 223/2/4 224/2/4 239/2/4
f 238/3/4 223/3/4 239/3/4
f 224/3/4 225/3/4 240/3/4
f 239/2/4 224/2/4 240/2/4
f 225/2/4 204/2/4 241/2/4
f 240/3/4 225/3/4 241/3/4
f 210/3/4 226/3/4 242/3/4
f 202/3/4 210/3/4 242/3/4
f 227/3/4 228/3/4 242/3/4
f 226/3/4 227/3/4 242/3/4
f 228/2/4 229/2/4 243/2/4
f 242/3/4 228/3/4 243/3/4
f 243/2/4 229/2/4 244/2/4
f 244/2/4 229/2/4 245/2/4
f 229/1/4 230/1/4 246/1/4
f 245/2/4 229/2/4 246/2/4
f 230/1/4 231/1/4 246/1/4
f 231/1/4 232/1/4 246/1/4
f 232/1/4 233/1/4 246/1/4
f 246/1/4 233/1/4 247/1/4
f 247/1/4 233/1/4 248/1/4
f 248/1/4 233/1/4 249/1/4
f 233/2/4 234/2/4 250/2/4
f 249/1/4 233/1/4 250/1/4
f 237/3/4 238/3/4 251/3/4
f 250/2/4 234/2/4 251/2/4
f 235/3/4 236/3/4 251/3/4
f 236/3/4 237/3/4 251/3/4
f 234/3/4 235/3/4 251/3/4
f 251/3/4 238/3/4 252/3/4
f 238/1/4 239/1/4 253/1/4
f 252/3/4 238/3/4 253/3/4
f 239/2/4 240/2/4 254/2/4
f 253/1/4 239/1/4 254/1/4
f 240/1/4 241/1/4 255/1/4
f 254/2/4 240/2/4 255/2/4
f 241/2/4 204/2/4 256/2/4
f 255/1/4 241/1/4 256/1/4
f 202/3/4 242/3/4 257/3/4
f 242/2/4 243/2/4 257/2/4
f 257/2/4 243/2/4 258/2/4
f 243/3/4 244/3/4 259/3/4
f 258/2/4 243/2/4 259/2/4
f 244/1/4 245/1/4 260/1/4
f 259/3/4 244/3/4 260/3/4
f 260/1/4 245/1/4 261/1/4
f 246/3/4 247/3/4 262/3/4
f 261/1/4 245/1/4 262/1/4
f 245/3/4 246/3/4 262/3/4
f 262/3/4 247/3/4 263/3/4
f 247/2/4 248/2/4 264/2/4
f 263/3/4 247/3/4 264/3/4
f 264/2/4 248/2/4 265/2/4
f 248/1/4 249/1/4 266/1/4
f 265/2/4 248/2/4 266/2/4
f 249/2/4 250/2/4 267/2/4
f 266/1/4 249/1/4 267/1/4
f 251/1/4 252/1/4 268/1/4
f 267/2/4 250/2/4 268/2/4
f 250/1/4 251/1/4 268/1/4
f 252/2/4 253/2/4 269/2/4
f 268/1/4 252/1/4 269/1/4
f 254/1/4 255/1/4 270/1/4
f 269/2/4 253/2/4 270/2/4
f 253/1/4 254/1/4 270/1/4
f 270/1/4 255/1/4 271/1/4
f 271/1/4 255/1/4 272/1/4
f 255/2/4 256/2/4 273/2/4
f 272/1/4 255/1/4 273/1/4
f 256/2/4 204/2/4 274/2/4
f 273/2/4 256/2/4 274/2/4
f 257/3/4 258/3/4 275/3/4
f 202/3/4 257/3/4 275/3/4
f 258/2/4 259/2/4 276/2/4
f 275/3/4 258/3/4 276/3/4
f 260/2/4 261/2/4 276/2/4
f 259/2/4 260/2/4 276/2/4
f 261/1/4 262/1/4 277/1/4
f 276/2/4 261/2/4 277/2/4
f 262/1/4 263/1/4 277/1/4
f 264/2/4 265/2/4 278/2/4
f 277/1/4 263/1/4 278/1/4
f 263/2/4 264/2/4 278/2/4
f 268/1/4 269/1/4 279/1/4
f 278/2/4 265/2/4 279/2/4
f 265/1/4 266/1/4 279/1/4
f 267/1/4 268/1/4 279/1/4
f 269/1/4 270/1/4 279/1/4
f 266/1/4 267/1/4 279/1/4
f 270/1/4 271/1/4 279/1/4
f 271/2/4 272/2/4 280/2/4
f 279/1/4 271/1/4 280/1/4
f 272/1/4 273/1/4 281/1/4
f 280/2/4 272/2/4 281/2/4
f 273/1/4 274/1/4 281/1/4
f 274/2/4 204/2/4 282/2/4
f 281/1/4 274/1/4 282/1/4
f 282/2/4 204/2/4 283/2/4
f 286/3/5 285/3/5 284/3/5
f 287/3/5 285/3/5 286/3/5
f 288/2/6 289/2/6 290/2/6
f 290/2/6 289/2/6 291/2/6
